<svg width="205" height="33" viewBox="0 0 205 33" fill="none" xmlns="http://www.w3.org/2000/svg">
<path d="M34.2427 0.857178H4.92842C3.62133 0.857178 2.36776 1.37642 1.4435 2.30068C0.519243 3.22494 0 4.4785 0 5.7856V27.2144C0 28.5215 0.519243 29.7751 1.4435 30.6993C2.36776 31.6236 3.62133 32.1428 4.92842 32.1428H34.2427C35.5498 32.1428 36.8034 31.6236 37.7276 30.6993C38.6519 29.7751 39.1711 28.5215 39.1711 27.2144V5.7856C39.1711 4.4785 38.6519 3.22494 37.7276 2.30068C36.8034 1.37642 35.5498 0.857178 34.2427 0.857178ZM37.1997 20.4329H24.5436C23.4979 20.4329 22.495 20.0175 21.7556 19.2781C21.0162 18.5387 20.6008 17.5358 20.6008 16.4901C20.6008 15.4445 21.0162 14.4416 21.7556 13.7022C22.495 12.9628 23.4979 12.5474 24.5436 12.5474H37.1997V20.4329ZM24.5436 10.576C22.975 10.576 21.4708 11.1991 20.3617 12.3082C19.2525 13.4173 18.6294 14.9216 18.6294 16.4901C18.6294 18.0587 19.2525 19.5629 20.3617 20.6721C21.4708 21.7812 22.975 22.4043 24.5436 22.4043H37.1997V27.2144C37.1997 27.9987 36.8882 28.7508 36.3336 29.3053C35.7791 29.8599 35.027 30.1714 34.2427 30.1714H4.92842C4.14417 30.1714 3.39203 29.8599 2.83747 29.3053C2.28292 28.7508 1.97137 27.9987 1.97137 27.2144V5.7856C1.97137 5.00134 2.28292 4.2492 2.83747 3.69465C3.39203 3.14009 4.14417 2.82855 4.92842 2.82855H34.2427C35.027 2.82855 35.7791 3.14009 36.3336 3.69465C36.8882 4.2492 37.1997 5.00134 37.1997 5.7856V10.576H24.5436Z" fill="white"/>
<path d="M24.5515 18.4635C25.6402 18.4635 26.5228 17.5809 26.5228 16.4921C26.5228 15.4034 25.6402 14.5208 24.5515 14.5208C23.4627 14.5208 22.5801 15.4034 22.5801 16.4921C22.5801 17.5809 23.4627 18.4635 24.5515 18.4635Z" fill="white"/>
<path d="M54.4757 31.5731C53.6781 31.5731 52.9184 31.3072 52.1967 30.7754C51.513 30.2436 51.1711 29.4839 51.1711 28.4963V11.7454C51.1711 10.8717 51.456 10.169 52.0258 9.63723C52.6335 9.06747 53.3362 8.78259 54.1339 8.78259H59.2617C61.5408 8.78259 63.535 9.25739 65.2442 10.207C66.9915 11.1186 68.3399 12.4291 69.2895 14.1384C70.2771 15.8476 70.7709 17.8988 70.7709 20.2918C70.7709 22.3809 70.3151 24.2801 69.4035 25.9894C68.5299 27.6987 67.2954 29.0661 65.7 30.0917C64.1427 31.0793 62.3385 31.5731 60.2873 31.5731H54.4757ZM56.8118 28.0405H59.3187C61.7877 28.0405 63.6679 27.3948 64.9594 26.1033C66.2508 24.7739 66.8776 22.8367 66.8396 20.2918C66.8016 17.7089 66.1369 15.7337 64.8454 14.3663C63.5539 12.9988 61.6927 12.3151 59.2617 12.3151H56.8687C55.7292 12.3151 55.1595 12.8849 55.1595 14.0244V26.3313C55.1595 27.4708 55.7102 28.0405 56.8118 28.0405Z" fill="#93C5FD"/>
<path d="M82.3976 32.1428C79.5488 32.1428 77.3267 31.3262 75.7314 29.6929C74.1361 28.0595 73.3384 25.8565 73.3384 23.0836C73.3384 20.6526 74.1361 18.6585 75.7314 17.1011C77.3647 15.5438 79.4539 14.7651 81.9988 14.7651C84.4678 14.7651 86.4429 15.4868 87.9243 16.9302C89.4057 18.3356 90.1464 20.0829 90.1464 22.172C90.1464 23.0076 89.9185 23.6344 89.4627 24.0522C89.0448 24.47 88.4941 24.6789 87.8104 24.6789H77.8965C77.5167 24.6789 77.3837 24.8879 77.4977 25.3057C77.8015 26.3692 78.4093 27.2049 79.3209 27.8126C80.2705 28.3824 81.3341 28.6673 82.5116 28.6673C83.3852 28.6673 84.2209 28.5533 85.0185 28.3254C85.8542 28.0975 86.5759 27.7557 87.1836 27.2999C87.3735 27.1479 87.6204 27.0719 87.9243 27.0719C88.3421 27.0719 88.722 27.2619 89.0638 27.6417C89.4057 27.9836 89.5766 28.4014 89.5766 28.8952C89.5766 29.1231 89.5386 29.351 89.4627 29.5789C89.3867 29.8068 89.2158 30.0347 88.9499 30.2626C87.9623 30.9843 86.8987 31.4781 85.7592 31.744C84.6577 32.0099 83.5372 32.1428 82.3976 32.1428ZM85.7022 21.7162C85.9301 21.7162 86.0441 21.6022 86.0441 21.3743C86.0441 20.5007 85.6453 19.741 84.8476 19.0953C84.0879 18.4495 83.1383 18.1267 81.9988 18.1267C81.0112 18.1267 80.0616 18.3926 79.15 18.9244C78.2763 19.4561 77.7446 20.1588 77.5546 21.0325C77.5546 21.0325 77.5546 21.0515 77.5546 21.0894C77.5167 21.2414 77.4977 21.3743 77.4977 21.4883C77.5357 21.6022 77.7066 21.6592 78.0105 21.6592L85.7022 21.7162Z" fill="#93C5FD"/>
<path d="M100.286 32.1428C99.7162 32.1428 99.1844 32.0099 98.6906 31.744C98.1968 31.5161 97.8359 31.1552 97.608 30.6614L91.9674 17.386C91.8914 17.0821 91.8534 16.8542 91.8534 16.7023C91.8534 16.0945 92.0624 15.6197 92.4802 15.2779C92.898 14.936 93.3538 14.7651 93.8476 14.7651C94.1895 14.7651 94.5123 14.8601 94.8162 15.05C95.1581 15.2399 95.405 15.5438 95.5569 15.9616L99.5452 26.2743C99.7351 26.6541 99.982 26.844 100.286 26.844C100.666 26.844 100.913 26.6541 101.027 26.2743L104.958 15.9616C105.11 15.5438 105.338 15.2399 105.642 15.05C105.984 14.8601 106.325 14.7651 106.667 14.7651C107.199 14.7651 107.655 14.936 108.035 15.2779C108.453 15.6197 108.661 16.0755 108.661 16.6453C108.661 16.8352 108.623 17.0821 108.547 17.386L102.964 30.6614C102.736 31.1552 102.375 31.5161 101.881 31.744C101.387 32.0099 100.856 32.1428 100.286 32.1428Z" fill="#93C5FD"/>
<path d="M116.039 32.1428C114.557 32.1428 113.627 31.4401 113.247 30.0347L109.771 17.272C109.733 17.1581 109.714 17.0441 109.714 16.9302C109.714 16.8162 109.714 16.7213 109.714 16.6453C109.714 16.1135 109.885 15.6767 110.227 15.3348C110.607 14.955 111.082 14.7651 111.651 14.7651C112.069 14.7651 112.449 14.879 112.791 15.1069C113.171 15.2969 113.399 15.6007 113.475 16.0186L115.583 25.9324C115.659 26.3502 115.83 26.5592 116.095 26.5592C116.361 26.5592 116.551 26.3502 116.665 25.9324L119.628 17.1581C119.818 16.6263 120.141 16.2465 120.597 16.0186C121.052 15.7527 121.527 15.6197 122.021 15.6197C122.515 15.6197 122.971 15.7527 123.388 16.0186C123.844 16.2465 124.148 16.6263 124.3 17.1581L127.263 25.9324C127.377 26.3502 127.567 26.5592 127.833 26.5592C128.098 26.5592 128.269 26.3502 128.345 25.9324L130.453 16.0186C130.529 15.6007 130.738 15.2969 131.08 15.1069C131.46 14.879 131.859 14.7651 132.277 14.7651C132.846 14.7651 133.302 14.955 133.644 15.3348C134.024 15.6767 134.214 16.1135 134.214 16.6453C134.214 16.7213 134.214 16.8162 134.214 16.9302C134.214 17.0441 134.195 17.1581 134.157 17.272L130.681 30.0347C130.302 31.4401 129.371 32.1428 127.89 32.1428C127.244 32.1428 126.655 31.9529 126.123 31.5731C125.629 31.1552 125.288 30.6424 125.098 30.0347L122.477 21.7162C122.325 21.2224 122.154 20.9755 121.964 20.9755C121.736 20.9755 121.546 21.2224 121.394 21.7162L118.83 30.0347C118.64 30.6424 118.28 31.1552 117.748 31.5731C117.254 31.9529 116.684 32.1428 116.039 32.1428Z" fill="white"/>
<path d="M144.424 32.1428C142.79 32.1428 141.328 31.763 140.037 31.0033C138.745 30.2436 137.739 29.1991 137.017 27.8696C136.295 26.5022 135.934 24.9828 135.934 23.3115C135.934 21.6782 136.295 20.2158 137.017 18.9243C137.739 17.6329 138.745 16.6263 140.037 15.9046C141.328 15.1449 142.79 14.7651 144.424 14.7651C145.487 14.7651 146.437 14.955 147.273 15.3348C148.108 15.6767 148.83 16.1325 149.438 16.7023C149.514 16.1705 149.742 15.7717 150.121 15.5058C150.501 15.2019 150.919 15.05 151.375 15.05C151.869 15.05 152.305 15.2209 152.685 15.5628C153.103 15.8666 153.312 16.3414 153.312 16.9872V30.3766C153.312 30.9463 153.103 31.3831 152.685 31.687C152.305 31.9909 151.869 32.1428 151.375 32.1428C150.881 32.1428 150.425 31.9909 150.007 31.687C149.628 31.3831 149.438 30.9463 149.438 30.3766V30.1487C148.83 30.7564 148.108 31.2312 147.273 31.5731C146.437 31.9529 145.487 32.1428 144.424 32.1428ZM144.766 28.6103C146.209 28.6103 147.349 28.1355 148.184 27.1859C149.02 26.1983 149.438 24.9068 149.438 23.3115C149.438 21.7921 149.02 20.5767 148.184 19.665C147.349 18.7534 146.209 18.2976 144.766 18.2976C143.284 18.2976 142.088 18.7534 141.176 19.665C140.265 20.5767 139.809 21.7921 139.809 23.3115C139.809 24.9068 140.265 26.1983 141.176 27.1859C142.088 28.1355 143.284 28.6103 144.766 28.6103Z" fill="white"/>
<path d="M159.542 32.1428C159.049 32.1428 158.593 31.9909 158.175 31.687C157.795 31.3831 157.605 30.9463 157.605 30.3766V8.72561C157.605 8.07988 157.795 7.60508 158.175 7.30121C158.593 6.95935 159.049 6.78842 159.542 6.78842C160.036 6.78842 160.473 6.95935 160.853 7.30121C161.271 7.60508 161.48 8.07988 161.48 8.72561V30.3766C161.48 30.9463 161.271 31.3831 160.853 31.687C160.473 31.9909 160.036 32.1428 159.542 32.1428Z" fill="white"/>
<path d="M168.111 32.1428C167.617 32.1428 167.162 31.9909 166.744 31.687C166.364 31.3831 166.174 30.9463 166.174 30.3766V8.72561C166.174 8.07988 166.364 7.60508 166.744 7.30121C167.162 6.95935 167.617 6.78842 168.111 6.78842C168.605 6.78842 169.042 6.95935 169.422 7.30121C169.839 7.60508 170.048 8.07988 170.048 8.72561V30.3766C170.048 30.9463 169.839 31.3831 169.422 31.687C169.042 31.9909 168.605 32.1428 168.111 32.1428Z" fill="white"/>
<path d="M182.662 32.1428C179.814 32.1428 177.591 31.3262 175.996 29.6928C174.401 28.0595 173.603 25.8565 173.603 23.0836C173.603 20.6526 174.401 18.6585 175.996 17.1011C177.629 15.5438 179.719 14.7651 182.264 14.7651C184.732 14.7651 186.708 15.4868 188.189 16.9302C189.67 18.3356 190.411 20.0829 190.411 22.172C190.411 23.0076 190.183 23.6344 189.727 24.0522C189.31 24.47 188.759 24.6789 188.075 24.6789H178.161C177.781 24.6789 177.648 24.8879 177.762 25.3057C178.066 26.3692 178.674 27.2049 179.586 27.8126C180.535 28.3824 181.599 28.6673 182.776 28.6673C183.65 28.6673 184.486 28.5533 185.283 28.3254C186.119 28.0975 186.841 27.7557 187.448 27.2998C187.638 27.1479 187.885 27.0719 188.189 27.0719C188.607 27.0719 188.987 27.2619 189.329 27.6417C189.67 27.9836 189.841 28.4014 189.841 28.8952C189.841 29.1231 189.803 29.351 189.727 29.5789C189.651 29.8068 189.481 30.0347 189.215 30.2626C188.227 30.9843 187.163 31.4781 186.024 31.744C184.922 32.0099 183.802 32.1428 182.662 32.1428ZM185.967 21.7162C186.195 21.7162 186.309 21.6022 186.309 21.3743C186.309 20.5007 185.91 19.741 185.112 19.0953C184.353 18.4495 183.403 18.1267 182.264 18.1267C181.276 18.1267 180.326 18.3926 179.415 18.9243C178.541 19.4561 178.009 20.1588 177.819 21.0325C177.819 21.0325 177.819 21.0515 177.819 21.0894C177.781 21.2414 177.762 21.3743 177.762 21.4883C177.8 21.6022 177.971 21.6592 178.275 21.6592L185.967 21.7162Z" fill="white"/>
<path d="M200.266 32.1428C198.784 32.1428 197.569 31.687 196.619 30.7754C195.67 29.8638 195.195 28.4963 195.195 26.6731V19.4371C195.195 19.0573 195.005 18.8674 194.625 18.8674H193.6C193.106 18.8674 192.688 18.7154 192.346 18.4116C192.004 18.0697 191.833 17.6519 191.833 17.1581C191.833 16.6263 192.004 16.1895 192.346 15.8476C192.688 15.5058 193.106 15.3348 193.6 15.3348H194.625C195.005 15.3348 195.195 15.1449 195.195 14.7651V9.97909C195.195 9.44731 195.366 9.02949 195.708 8.72561C196.088 8.38375 196.543 8.21283 197.075 8.21283C197.645 8.21283 198.101 8.38375 198.443 8.72561C198.822 9.02949 199.012 9.44731 199.012 9.97909V14.7651C199.012 15.1449 199.202 15.3348 199.582 15.3348H202.659C203.115 15.3348 203.513 15.5058 203.855 15.8476C204.197 16.1895 204.368 16.6263 204.368 17.1581C204.368 17.6519 204.197 18.0697 203.855 18.4116C203.551 18.7154 203.134 18.8674 202.602 18.8674H199.582C199.202 18.8674 199.012 19.0573 199.012 19.4371V26.1603C199.012 27.7557 199.658 28.5533 200.949 28.5533C201.329 28.5533 201.728 28.4963 202.146 28.3824C202.564 28.2684 202.849 28.2115 203.001 28.2115C203.532 28.2115 203.931 28.3824 204.197 28.7243C204.501 29.0661 204.653 29.4649 204.653 29.9208C204.653 30.2626 204.558 30.6045 204.368 30.9463C204.178 31.2502 203.874 31.4781 203.456 31.63C203.039 31.782 202.507 31.8959 201.861 31.9719C201.253 32.0858 200.722 32.1428 200.266 32.1428Z" fill="white"/>
</svg>
